<?xml version="1.0" encoding="UTF-8"?>
<svg xmlns="http://www.w3.org/2000/svg" xmlns:xlink="http://www.w3.org/1999/xlink" width="225.3pt" height="250.8pt" viewBox="0 0 225.3 250.8" version="1.1">
<defs>
<clipPath id="clip1">
  <path d="M 0 0 L 225.300781 0 L 225.300781 216 L 0 216 Z M 0 0 "/>
</clipPath>
<clipPath id="clip2">
  <path d="M 0 199 L 225.300781 199 L 225.300781 236 L 0 236 Z M 0 199 "/>
</clipPath>
<clipPath id="clip3">
  <path d="M 0 238 L 224 238 L 224 250.800781 L 0 250.800781 Z M 0 238 "/>
</clipPath>
</defs>
<g id="surface1">
<path style=" stroke:none;fill-rule:evenodd;fill:rgb(86.71875%,16.868591%,10.984802%);fill-opacity:1;" d="M 112.171875 2.824219 L 213.347656 73.839844 L 174.699219 188.753906 L 49.640625 188.753906 L 10.996094 73.839844 Z M 112.171875 2.824219 "/>
<g clip-path="url(#clip1)" clip-rule="nonzero">
<path style="fill:none;stroke-width:47.658;stroke-linecap:butt;stroke-linejoin:miter;stroke:rgb(8.227539%,8.616638%,8.616638%);stroke-opacity:1;stroke-miterlimit:4;" d="M 1121.71875 2479.757813 L 2133.476563 1769.601563 L 1746.992188 620.460938 L 496.40625 620.460938 L 109.960938 1769.601563 Z M 1121.71875 2479.757813 " transform="matrix(0.1,0,0,-0.1,0,250.8)"/>
</g>
<path style="fill-rule:evenodd;fill:rgb(99.21875%,78.90625%,0%);fill-opacity:1;stroke-width:17.87;stroke-linecap:butt;stroke-linejoin:miter;stroke:rgb(8.227539%,8.616638%,8.616638%);stroke-opacity:1;stroke-miterlimit:4;" d="M 818.75 1132.84375 C 783.359375 1074.835938 738.554688 1041.085938 683.554688 1033.546875 C 710 1028.820313 734.179688 1025.734375 756.09375 1024.210938 C 755.390625 959.679688 707.460938 938.390625 649.726563 926.085938 C 674.960938 919.875 700.234375 913.625 725.46875 907.414063 C 706.328125 860.109375 670.3125 832.0625 617.460938 823.3125 C 770.9375 796.320313 895.859375 795.148438 883.476563 918.3125 C 896.210938 867.492188 929.0625 835.34375 978.554688 818.625 C 1021.992188 838.859375 1042.929688 869.484375 1041.445313 910.5 C 1052.03125 861.164063 1085.351563 834.835938 1130.117188 820.1875 C 1169.921875 836.554688 1189.960938 868.46875 1201.015625 907.414063 C 1203.476563 862.023438 1226.5625 828.820313 1270.351563 807.726563 C 1321.601563 830.382813 1352.148438 863.9375 1363.828125 907.414063 C 1369.804688 861.789063 1385.351563 825.382813 1421.875 809.289063 C 1470.703125 825.03125 1501.601563 859.210938 1523.4375 902.726563 C 1510 800.304688 1603.476563 775.226563 1770.078125 803.039063 C 1726.328125 821.164063 1688.75 842.570313 1694.296875 887.140625 C 1715.273438 891.828125 1736.210938 896.515625 1757.1875 901.164063 C 1685 916.320313 1648.4375 953.429688 1636.289063 1005.539063 C 1664.21875 1010.1875 1692.148438 1014.875 1720.117188 1019.523438 C 1660.078125 1042.179688 1612.265625 1075.460938 1584.53125 1126.164063 C 1502.890625 1113.976563 1436.25 1123.976563 1384.609375 1156.164063 C 1377.773438 1092.101563 1344.765625 1043.820313 1280.273438 1014.601563 C 1213.515625 1041.320313 1187.460938 1094.914063 1189.21875 1166.90625 C 1194.6875 1102.257813 1172.304688 1054.601563 1109.296875 1031.75 C 1042.382813 1046.398438 1017.734375 1099.171875 1004.960938 1162.609375 C 933.320313 1132.414063 873.125 1126.4375 818.75 1132.84375 Z M 818.75 1132.84375 " transform="matrix(0.1,0,0,-0.1,0,250.8)"/>
<path style="fill-rule:evenodd;fill:rgb(99.21875%,78.90625%,0%);fill-opacity:1;stroke-width:17.87;stroke-linecap:butt;stroke-linejoin:miter;stroke:rgb(8.227539%,8.616638%,8.616638%);stroke-opacity:1;stroke-miterlimit:4;" d="M 722.96875 1156.164063 C 802.851563 1128.3125 888.945313 1113.664063 1004.960938 1162.609375 C 1017.734375 1099.171875 1042.382813 1046.398438 1109.296875 1031.75 C 1172.304688 1054.601563 1194.6875 1102.257813 1189.21875 1166.90625 C 1187.460938 1094.914063 1213.515625 1041.320313 1280.273438 1014.601563 C 1344.765625 1043.820313 1377.773438 1092.101563 1384.609375 1156.164063 C 1458.320313 1110.1875 1562.695313 1109.484375 1697.65625 1154.015625 C 1433.710938 1198.351563 1580.507813 1486.476563 1404.609375 1683.859375 C 1441.132813 1687.882813 1472.8125 1707.0625 1502.304688 1733.195313 C 1465.429688 1731.632813 1429.492188 1733.585938 1397.929688 1752.492188 C 1444.609375 1773.078125 1481.601563 1808.117188 1508.945313 1857.609375 C 1462.695313 1835.1875 1418.28125 1832.335938 1375.742188 1849.015625 C 1453.945313 1892.765625 1518.515625 1942.726563 1526.71875 2018.507813 C 1345.820313 1922.21875 1180.9375 1888.234375 1036.015625 1930.539063 C 926.367188 1962.570313 830.3125 1918.507813 751.835938 1958.429688 C 746.054688 1922.960938 742.8125 1896.75 740.742188 1874.757813 C 729.53125 1910.734375 703.554688 1935.265625 667.460938 1951.984375 C 680.78125 1914.09375 676.601563 1876.203125 667.460938 1838.3125 C 661.09375 1877.84375 639.0625 1913.234375 605.3125 1945.539063 C 624.765625 1891.789063 617.070313 1845.734375 594.179688 1803.976563 C 584.296875 1838.117188 563.476563 1864.71875 518.710938 1874.757813 C 541.601563 1844.523438 547.382813 1809.289063 545.351563 1771.789063 C 517.695313 1770.96875 493.945313 1779.953125 478.75 1810.421875 C 506.25 1774.875 518.867188 1740.578125 516.484375 1707.453125 C 382.929688 1684.484375 312.617188 1612.0625 285.585938 1505.8125 C 477.65625 1634.25 603.085938 1479.015625 816.210938 1527.257813 C 651.367188 1425.460938 502.773438 1373.390625 389.921875 1430.734375 C 436.953125 1352.414063 513.75 1310.226563 664.570313 1358.078125 C 722.070313 1376.320313 829.335938 1436.59375 852.226563 1337.492188 C 865.078125 1281.75 820.859375 1199.289063 722.96875 1156.164063 Z M 722.96875 1156.164063 " transform="matrix(0.1,0,0,-0.1,0,250.8)"/>
<path style="fill:none;stroke-width:17.87;stroke-linecap:butt;stroke-linejoin:miter;stroke:rgb(8.227539%,8.616638%,8.616638%);stroke-opacity:1;stroke-miterlimit:4;" d="M 516.484375 1707.453125 C 516.484375 1707.453125 596.71875 1718.742188 650.664063 1675.226563 " transform="matrix(0.1,0,0,-0.1,0,250.8)"/>
<path style="fill-rule:evenodd;fill:rgb(99.21875%,78.90625%,0%);fill-opacity:1;stroke-width:17.87;stroke-linecap:butt;stroke-linejoin:miter;stroke:rgb(8.227539%,8.616638%,8.616638%);stroke-opacity:1;stroke-miterlimit:4;" d="M 469.21875 1508.117188 C 469.21875 1508.117188 489.960938 1433.273438 578.359375 1489.132813 C 607.773438 1507.726563 626.171875 1519.210938 640.039063 1526.320313 C 693.476563 1516.828125 750.703125 1512.414063 816.210938 1527.257813 C 804.023438 1519.71875 791.875 1512.453125 779.84375 1505.5 C 618.4375 1445.070313 479.296875 1408.195313 469.21875 1508.117188 Z M 469.21875 1508.117188 " transform="matrix(0.1,0,0,-0.1,0,250.8)"/>
<path style="fill-rule:evenodd;fill:rgb(99.21875%,78.90625%,0%);fill-opacity:1;stroke-width:17.87;stroke-linecap:butt;stroke-linejoin:miter;stroke:rgb(8.227539%,8.616638%,8.616638%);stroke-opacity:1;stroke-miterlimit:4;" d="M 1109.570313 1025.890625 C 1109.570313 1025.890625 1131.640625 943.78125 1041.445313 910.5 " transform="matrix(0.1,0,0,-0.1,0,250.8)"/>
<path style="fill-rule:evenodd;fill:rgb(99.21875%,78.90625%,0%);fill-opacity:1;stroke-width:17.87;stroke-linecap:butt;stroke-linejoin:miter;stroke:rgb(8.227539%,8.616638%,8.616638%);stroke-opacity:1;stroke-miterlimit:4;" d="M 1280.273438 1014.601563 C 1280.273438 1014.601563 1293.75 930.03125 1201.015625 907.414063 " transform="matrix(0.1,0,0,-0.1,0,250.8)"/>
<path style="fill-rule:evenodd;fill:rgb(99.21875%,78.90625%,0%);fill-opacity:1;stroke-width:17.87;stroke-linecap:butt;stroke-linejoin:miter;stroke:rgb(8.227539%,8.616638%,8.616638%);stroke-opacity:1;stroke-miterlimit:4;" d="M 1462.65625 1015.1875 C 1462.65625 1015.1875 1464.921875 928.78125 1363.828125 907.414063 " transform="matrix(0.1,0,0,-0.1,0,250.8)"/>
<path style="fill-rule:evenodd;fill:rgb(99.21875%,78.90625%,0%);fill-opacity:1;stroke-width:17.87;stroke-linecap:butt;stroke-linejoin:miter;stroke:rgb(8.227539%,8.616638%,8.616638%);stroke-opacity:1;stroke-miterlimit:4;" d="M 1383.398438 1146.789063 C 1383.398438 1146.789063 1404.921875 943.15625 1636.289063 1005.539063 " transform="matrix(0.1,0,0,-0.1,0,250.8)"/>
<path style="fill-rule:evenodd;fill:rgb(99.21875%,78.90625%,0%);fill-opacity:1;stroke-width:17.87;stroke-linecap:butt;stroke-linejoin:miter;stroke:rgb(8.227539%,8.616638%,8.616638%);stroke-opacity:1;stroke-miterlimit:4;" d="M 1462.65625 1015.1875 C 1462.65625 1015.1875 1439.21875 830.578125 1694.296875 887.140625 " transform="matrix(0.1,0,0,-0.1,0,250.8)"/>
<path style="fill-rule:evenodd;fill:rgb(99.21875%,78.90625%,0%);fill-opacity:1;stroke-width:17.87;stroke-linecap:butt;stroke-linejoin:miter;stroke:rgb(8.227539%,8.616638%,8.616638%);stroke-opacity:1;stroke-miterlimit:4;" d="M 1280.273438 1014.601563 C 1280.273438 1014.601563 1275.429688 908.703125 1363.828125 907.414063 " transform="matrix(0.1,0,0,-0.1,0,250.8)"/>
<path style="fill-rule:evenodd;fill:rgb(99.21875%,78.90625%,0%);fill-opacity:1;stroke-width:17.87;stroke-linecap:butt;stroke-linejoin:miter;stroke:rgb(8.227539%,8.616638%,8.616638%);stroke-opacity:1;stroke-miterlimit:4;" d="M 938.046875 1026.828125 C 938.046875 1026.828125 952.5 904.914063 1041.445313 910.5 " transform="matrix(0.1,0,0,-0.1,0,250.8)"/>
<path style="fill-rule:evenodd;fill:rgb(99.21875%,78.90625%,0%);fill-opacity:1;stroke-width:17.87;stroke-linecap:butt;stroke-linejoin:miter;stroke:rgb(8.227539%,8.616638%,8.616638%);stroke-opacity:1;stroke-miterlimit:4;" d="M 1109.296875 1031.75 C 1109.296875 1031.75 1109.453125 921.242188 1201.015625 907.414063 " transform="matrix(0.1,0,0,-0.1,0,250.8)"/>
<path style="fill-rule:evenodd;fill:rgb(99.21875%,78.90625%,0%);fill-opacity:1;stroke-width:17.87;stroke-linecap:butt;stroke-linejoin:miter;stroke:rgb(8.227539%,8.616638%,8.616638%);stroke-opacity:1;stroke-miterlimit:4;" d="M 725.46875 907.414063 C 725.46875 907.414063 935.195313 849.09375 938.046875 1026.828125 " transform="matrix(0.1,0,0,-0.1,0,250.8)"/>
<path style="fill-rule:evenodd;fill:rgb(99.21875%,78.90625%,0%);fill-opacity:1;stroke-width:17.87;stroke-linecap:butt;stroke-linejoin:miter;stroke:rgb(8.227539%,8.616638%,8.616638%);stroke-opacity:1;stroke-miterlimit:4;" d="M 756.09375 1024.210938 C 756.09375 1024.210938 970.976563 954.289063 1014.960938 1123.9375 " transform="matrix(0.1,0,0,-0.1,0,250.8)"/>
<path style="fill-rule:evenodd;fill:rgb(8.227539%,8.616638%,8.616638%);fill-opacity:1;stroke-width:18.22;stroke-linecap:round;stroke-linejoin:round;stroke:rgb(8.227539%,8.616638%,8.616638%);stroke-opacity:1;stroke-miterlimit:4;" d="M 801.171875 1721.828125 C 801.171875 1721.828125 819.921875 1694.953125 827.03125 1701.515625 C 834.140625 1708.039063 835.15625 1716.242188 835.15625 1716.242188 C 835.15625 1716.242188 835.234375 1694.835938 857.109375 1702.804688 C 879.023438 1710.8125 889.609375 1726.398438 896.015625 1737.53125 C 902.460938 1748.625 916.796875 1774.015625 921.601563 1776.398438 C 926.445313 1778.742188 885.976563 1766.671875 873.710938 1752.53125 C 861.40625 1738.429688 825.625 1727.960938 818.125 1725.929688 C 810.664063 1723.898438 801.171875 1721.828125 801.171875 1721.828125 Z M 801.171875 1721.828125 " transform="matrix(0.1,0,0,-0.1,0,250.8)"/>
<path style="fill:none;stroke-width:18.22;stroke-linecap:round;stroke-linejoin:round;stroke:rgb(8.227539%,8.616638%,8.616638%);stroke-opacity:1;stroke-miterlimit:4;" d="M 744.84375 1723.664063 C 744.84375 1723.664063 781.835938 1710.265625 833.90625 1731.476563 C 885.976563 1752.726563 898.710938 1780.65625 934.570313 1776.203125 C 970.429688 1771.710938 980.820313 1754.953125 980.820313 1754.953125 " transform="matrix(0.1,0,0,-0.1,0,250.8)"/>
<path style="fill:none;stroke-width:18.22;stroke-linecap:round;stroke-linejoin:round;stroke:rgb(8.227539%,8.616638%,8.616638%);stroke-opacity:1;stroke-miterlimit:4;" d="M 794.570313 1678.9375 C 794.570313 1678.9375 814.257813 1635.382813 866.289063 1675.617188 C 918.359375 1715.851563 914.882813 1772.84375 963.476563 1761.671875 " transform="matrix(0.1,0,0,-0.1,0,250.8)"/>
<path style="fill:none;stroke-width:18.22;stroke-linecap:round;stroke-linejoin:round;stroke:rgb(8.227539%,8.616638%,8.616638%);stroke-opacity:1;stroke-miterlimit:4;" d="M 784.179688 1626.4375 C 784.179688 1626.4375 820.039063 1639.835938 818.867188 1613 C 817.695313 1586.203125 824.648438 1557.140625 860.507813 1577.257813 C 896.367188 1597.375 951.914063 1604.054688 953.046875 1572.765625 C 954.21875 1541.476563 931.09375 1533.664063 901.015625 1510.1875 C 870.9375 1486.710938 838.554688 1446.476563 846.640625 1426.359375 " transform="matrix(0.1,0,0,-0.1,0,250.8)"/>
<path style="fill:none;stroke-width:18.22;stroke-linecap:round;stroke-linejoin:round;stroke:rgb(8.227539%,8.616638%,8.616638%);stroke-opacity:1;stroke-miterlimit:4;" d="M 597.929688 1737.0625 C 597.929688 1737.0625 606.015625 1710.265625 647.65625 1711.359375 C 689.296875 1712.492188 719.375 1684.5625 658.085938 1657.726563 " transform="matrix(0.1,0,0,-0.1,0,250.8)"/>
<path style="fill:none;stroke-width:18.22;stroke-linecap:round;stroke-linejoin:round;stroke:rgb(8.227539%,8.616638%,8.616638%);stroke-opacity:1;stroke-miterlimit:4;" d="M 737.890625 1767.257813 C 737.890625 1767.257813 771.445313 1742.648438 815.390625 1766.125 C 859.375 1789.601563 907.929688 1822.023438 966.953125 1810.851563 " transform="matrix(0.1,0,0,-0.1,0,250.8)"/>
<path style="fill:none;stroke-width:18.22;stroke-linecap:round;stroke-linejoin:round;stroke:rgb(8.227539%,8.616638%,8.616638%);stroke-opacity:1;stroke-miterlimit:4;" d="M 1205.273438 1511.320313 C 1205.273438 1511.320313 1316.328125 1526.945313 1227.226563 1583.9375 " transform="matrix(0.1,0,0,-0.1,0,250.8)"/>
<path style="fill:none;stroke-width:18.22;stroke-linecap:round;stroke-linejoin:round;stroke:rgb(8.227539%,8.616638%,8.616638%);stroke-opacity:1;stroke-miterlimit:4;" d="M 1207.578125 1653.234375 C 1207.578125 1653.234375 1266.5625 1666.671875 1287.382813 1646.554688 C 1308.203125 1626.4375 1280.46875 1586.203125 1227.226563 1583.9375 " transform="matrix(0.1,0,0,-0.1,0,250.8)"/>
<path style="fill:none;stroke-width:18.22;stroke-linecap:round;stroke-linejoin:round;stroke:rgb(8.227539%,8.616638%,8.616638%);stroke-opacity:1;stroke-miterlimit:4;" d="M 1101.132813 1504.601563 C 1101.132813 1504.601563 1230.703125 1405.109375 1205.273438 1511.320313 " transform="matrix(0.1,0,0,-0.1,0,250.8)"/>
<path style="fill:none;stroke-width:18.22;stroke-linecap:round;stroke-linejoin:round;stroke:rgb(8.227539%,8.616638%,8.616638%);stroke-opacity:1;stroke-miterlimit:4;" d="M 1161.289063 1727.023438 C 1161.289063 1727.023438 1178.632813 1772.84375 1233.007813 1770.617188 C 1287.382813 1768.351563 1294.335938 1704.679688 1207.578125 1653.234375 " transform="matrix(0.1,0,0,-0.1,0,250.8)"/>
<path style=" stroke:none;fill-rule:evenodd;fill:rgb(86.71875%,16.868591%,10.984802%);fill-opacity:1;" d="M 16.683594 222.136719 L 16.683594 215.625 L 29.625 215.625 L 29.625 228.980469 C 27.148438 230.925781 24.957031 232.261719 23.050781 232.960938 C 21.144531 233.671875 18.886719 234.019531 16.273438 234.019531 C 13.054688 234.019531 10.433594 233.386719 8.40625 232.117188 C 6.375 230.855469 4.804688 228.964844 3.691406 226.457031 C 2.574219 223.945313 2.011719 221.070313 2.011719 217.824219 C 2.011719 214.40625 2.625 211.429688 3.84375 208.898438 C 5.066406 206.375 6.855469 204.457031 9.210938 203.140625 C 11.046875 202.128906 13.519531 201.625 16.625 201.625 C 19.617188 201.625 21.859375 201.9375 23.347656 202.566406 C 24.832031 203.191406 26.0625 204.164063 27.046875 205.484375 C 28.027344 206.796875 28.765625 208.46875 29.257813 210.496094 L 21.175781 212.160156 C 20.84375 210.976563 20.273438 210.070313 19.480469 209.445313 C 18.691406 208.816406 17.675781 208.503906 16.441406 208.503906 C 14.605469 208.503906 13.140625 209.242188 12.050781 210.714844 C 10.957031 212.195313 10.410156 214.523438 10.410156 217.71875 C 10.410156 221.109375 10.964844 223.53125 12.066406 224.984375 C 13.167969 226.433594 14.707031 227.164063 16.683594 227.164063 C 17.617188 227.164063 18.511719 227.003906 19.359375 226.691406 C 20.210938 226.375 21.191406 225.84375 22.28125 225.089844 L 22.28125 222.136719 Z M 34.585938 202.15625 L 57.03125 202.15625 L 57.03125 208.847656 L 42.980469 208.847656 L 42.980469 213.828125 L 56.015625 213.828125 L 56.015625 220.21875 L 42.980469 220.21875 L 42.980469 226.390625 L 57.441406 226.390625 L 57.441406 233.488281 L 34.585938 233.488281 Z M 62.0625 233.488281 L 62.0625 202.15625 L 76.027344 202.15625 C 78.613281 202.15625 80.597656 202.414063 81.960938 202.929688 C 83.332031 203.441406 84.433594 204.390625 85.273438 205.785156 C 86.113281 207.167969 86.53125 208.863281 86.53125 210.851563 C 86.53125 212.597656 86.207031 214.089844 85.570313 215.355469 C 84.925781 216.617188 84.042969 217.636719 82.925781 218.425781 C 82.207031 218.921875 81.226563 219.335938 79.984375 219.65625 C 80.980469 220.042969 81.707031 220.429688 82.167969 220.816406 C 82.472656 221.070313 82.917969 221.621094 83.507813 222.457031 C 84.09375 223.304688 84.484375 223.945313 84.679688 224.40625 L 88.734375 233.488281 L 79.265625 233.488281 L 74.789063 223.910156 C 74.222656 222.675781 73.714844 221.867188 73.265625 221.496094 C 72.667969 221.015625 71.980469 220.773438 71.214844 220.773438 L 70.476563 220.773438 L 70.476563 233.488281 Z M 70.476563 214.851563 L 74.011719 214.851563 C 74.390625 214.851563 75.128906 214.710938 76.226563 214.425781 C 76.785156 214.296875 77.238281 213.96875 77.589844 213.441406 C 77.9375 212.917969 78.117188 212.3125 78.117188 211.625 C 78.117188 210.613281 77.835938 209.839844 77.28125 209.300781 C 76.726563 208.75 75.683594 208.480469 74.15625 208.480469 L 70.476563 208.480469 Z M 91.746094 202.15625 L 100.140625 202.15625 L 100.140625 233.488281 L 91.746094 233.488281 Z M 106.207031 202.15625 L 114.035156 202.15625 L 124.242188 219.488281 L 124.242188 202.15625 L 132.140625 202.15625 L 132.140625 233.488281 L 124.242188 233.488281 L 114.085938 216.285156 L 114.085938 233.488281 L 106.207031 233.488281 Z M 137.8125 202.15625 L 150.261719 202.15625 C 152.710938 202.15625 154.695313 202.542969 156.207031 203.308594 C 157.714844 204.082031 158.96875 205.183594 159.953125 206.621094 C 160.9375 208.066406 161.648438 209.734375 162.097656 211.648438 C 162.539063 213.558594 162.761719 215.578125 162.761719 217.71875 C 162.761719 221.066406 162.433594 223.664063 161.769531 225.507813 C 161.113281 227.351563 160.199219 228.898438 159.023438 230.140625 C 157.855469 231.386719 156.601563 232.21875 155.253906 232.632813 C 153.417969 233.203125 151.75 233.488281 150.261719 233.488281 L 137.8125 233.488281 Z M 146.191406 209.253906 L 146.191406 226.367188 L 148.242188 226.367188 C 149.996094 226.367188 151.238281 226.148438 151.980469 225.695313 C 152.71875 225.253906 153.296875 224.464844 153.722656 223.347656 C 154.136719 222.230469 154.347656 220.414063 154.347656 217.90625 C 154.347656 214.589844 153.878906 212.320313 152.945313 211.09375 C 152.003906 209.867188 150.449219 209.253906 148.28125 209.253906 Z M 167.273438 233.488281 L 167.273438 202.15625 L 181.238281 202.15625 C 183.824219 202.15625 185.808594 202.414063 187.171875 202.929688 C 188.542969 203.441406 189.644531 204.390625 190.484375 205.785156 C 191.324219 207.167969 191.742188 208.863281 191.742188 210.851563 C 191.742188 212.597656 191.417969 214.089844 190.78125 215.355469 C 190.140625 216.617188 189.253906 217.636719 188.136719 218.425781 C 187.417969 218.921875 186.441406 219.335938 185.195313 219.65625 C 186.191406 220.042969 186.917969 220.429688 187.378906 220.816406 C 187.683594 221.070313 188.128906 221.621094 188.71875 222.457031 C 189.304688 223.304688 189.695313 223.945313 189.890625 224.40625 L 193.945313 233.488281 L 184.476563 233.488281 L 180 223.910156 C 179.433594 222.675781 178.925781 221.867188 178.480469 221.496094 C 177.878906 221.015625 177.191406 220.773438 176.425781 220.773438 L 175.691406 220.773438 L 175.691406 233.488281 Z M 175.691406 214.851563 L 179.222656 214.851563 C 179.601563 214.851563 180.339844 214.710938 181.441406 214.425781 C 181.996094 214.296875 182.449219 213.96875 182.804688 213.441406 C 183.152344 212.917969 183.328125 212.3125 183.328125 211.625 C 183.328125 210.613281 183.050781 209.839844 182.492188 209.300781 C 181.9375 208.75 180.898438 208.480469 179.367188 208.480469 L 175.691406 208.480469 Z M 213.304688 228.316406 L 203.761719 228.316406 L 202.449219 233.488281 L 193.890625 233.488281 L 204.078125 202.15625 L 213.210938 202.15625 L 223.40625 233.488281 L 214.636719 233.488281 Z M 211.550781 221.539063 L 208.550781 210.277344 L 205.574219 221.539063 Z M 211.550781 221.539063 "/>
<g clip-path="url(#clip2)" clip-rule="nonzero">
<path style="fill:none;stroke-width:39.175;stroke-linecap:round;stroke-linejoin:round;stroke:rgb(8.227539%,8.616638%,8.616638%);stroke-opacity:1;stroke-miterlimit:4;" d="M 166.835938 286.632813 L 166.835938 351.75 L 296.25 351.75 L 296.25 218.195313 C 271.484375 198.742188 249.570313 185.382813 230.507813 178.390625 C 211.445313 171.28125 188.867188 167.804688 162.734375 167.804688 C 130.546875 167.804688 104.335938 174.132813 84.0625 186.828125 C 63.75 199.445313 48.046875 218.351563 36.914063 243.429688 C 25.742188 268.546875 20.117188 297.296875 20.117188 329.757813 C 20.117188 363.9375 26.25 393.703125 38.4375 419.015625 C 50.664063 444.25 68.554688 463.429688 92.109375 476.59375 C 110.46875 486.710938 135.195313 491.75 166.25 491.75 C 196.171875 491.75 218.59375 488.625 233.476563 482.335938 C 248.320313 476.085938 260.625 466.359375 270.46875 453.15625 C 280.273438 440.03125 287.65625 423.3125 292.578125 403.039063 L 211.757813 386.398438 C 208.4375 398.234375 202.734375 407.296875 194.804688 413.546875 C 186.914063 419.835938 176.757813 422.960938 164.414063 422.960938 C 146.054688 422.960938 131.40625 415.578125 120.507813 400.851563 C 109.570313 386.046875 104.101563 362.765625 104.101563 330.8125 C 104.101563 296.90625 109.648438 272.6875 120.664063 258.15625 C 131.679688 243.664063 147.070313 236.359375 166.835938 236.359375 C 176.171875 236.359375 185.117188 237.960938 193.59375 241.085938 C 202.109375 244.25 211.914063 249.5625 222.8125 257.101563 L 222.8125 286.632813 Z M 345.859375 486.4375 L 570.3125 486.4375 L 570.3125 419.523438 L 429.804688 419.523438 L 429.804688 369.71875 L 560.15625 369.71875 L 560.15625 305.8125 L 429.804688 305.8125 L 429.804688 244.09375 L 574.414063 244.09375 L 574.414063 173.117188 L 345.859375 173.117188 Z M 620.625 173.117188 L 620.625 486.4375 L 760.273438 486.4375 C 786.132813 486.4375 805.976563 483.859375 819.609375 478.703125 C 833.320313 473.585938 844.335938 464.09375 852.734375 450.148438 C 861.132813 436.320313 865.3125 419.367188 865.3125 399.484375 C 865.3125 382.023438 862.070313 367.101563 855.703125 354.445313 C 849.257813 341.828125 840.429688 331.632813 829.257813 323.742188 C 822.070313 318.78125 812.265625 314.640625 799.84375 311.4375 C 809.804688 307.570313 817.070313 303.703125 821.679688 299.835938 C 824.726563 297.296875 829.179688 291.789063 835.078125 283.429688 C 840.9375 274.953125 844.84375 268.546875 846.796875 263.9375 L 887.34375 173.117188 L 792.65625 173.117188 L 747.890625 268.898438 C 742.226563 281.242188 737.148438 289.328125 732.65625 293.039063 C 726.679688 297.84375 719.804688 300.265625 712.148438 300.265625 L 704.765625 300.265625 L 704.765625 173.117188 Z M 704.765625 359.484375 L 740.117188 359.484375 C 743.90625 359.484375 751.289063 360.890625 762.265625 363.742188 C 767.851563 365.03125 772.382813 368.3125 775.898438 373.585938 C 779.375 378.820313 781.171875 384.875 781.171875 391.75 C 781.171875 401.867188 778.359375 409.601563 772.8125 414.992188 C 767.265625 420.5 756.835938 423.195313 741.5625 423.195313 L 704.765625 423.195313 Z M 917.460938 486.4375 L 1001.40625 486.4375 L 1001.40625 173.117188 L 917.460938 173.117188 Z M 1062.070313 486.4375 L 1140.351563 486.4375 L 1242.421875 313.117188 L 1242.421875 486.4375 L 1321.40625 486.4375 L 1321.40625 173.117188 L 1242.421875 173.117188 L 1140.859375 345.148438 L 1140.859375 173.117188 L 1062.070313 173.117188 Z M 1378.125 486.4375 L 1502.617188 486.4375 C 1527.109375 486.4375 1546.953125 482.570313 1562.070313 474.914063 C 1577.148438 467.179688 1589.6875 456.164063 1599.53125 441.789063 C 1609.375 427.335938 1616.484375 410.65625 1620.976563 391.515625 C 1625.390625 372.414063 1627.617188 352.21875 1627.617188 330.8125 C 1627.617188 297.335938 1624.335938 271.359375 1617.695313 252.921875 C 1611.132813 234.484375 1601.992188 219.015625 1590.234375 206.59375 C 1578.554688 194.132813 1566.015625 185.8125 1552.539063 181.671875 C 1534.179688 175.96875 1517.5 173.117188 1502.617188 173.117188 L 1378.125 173.117188 Z M 1461.914063 415.460938 L 1461.914063 244.328125 L 1482.421875 244.328125 C 1499.960938 244.328125 1512.382813 246.515625 1519.804688 251.046875 C 1527.1875 255.460938 1532.96875 263.351563 1537.226563 274.523438 C 1541.367188 285.695313 1543.476563 303.859375 1543.476563 328.9375 C 1543.476563 362.101563 1538.789063 384.796875 1529.453125 397.0625 C 1520.039063 409.328125 1504.492188 415.460938 1482.8125 415.460938 Z M 1672.734375 173.117188 L 1672.734375 486.4375 L 1812.382813 486.4375 C 1838.242188 486.4375 1858.085938 483.859375 1871.71875 478.703125 C 1885.429688 473.585938 1896.445313 464.09375 1904.84375 450.148438 C 1913.242188 436.320313 1917.421875 419.367188 1917.421875 399.484375 C 1917.421875 382.023438 1914.179688 367.101563 1907.8125 354.445313 C 1901.40625 341.828125 1892.539063 331.632813 1881.367188 323.742188 C 1874.179688 318.78125 1864.414063 314.640625 1851.953125 311.4375 C 1861.914063 307.570313 1869.179688 303.703125 1873.789063 299.835938 C 1876.835938 297.296875 1881.289063 291.789063 1887.1875 283.429688 C 1893.046875 274.953125 1896.953125 268.546875 1898.90625 263.9375 L 1939.453125 173.117188 L 1844.765625 173.117188 L 1800 268.898438 C 1794.335938 281.242188 1789.257813 289.328125 1784.804688 293.039063 C 1778.789063 297.84375 1771.914063 300.265625 1764.257813 300.265625 L 1756.914063 300.265625 L 1756.914063 173.117188 Z M 1756.914063 359.484375 L 1792.226563 359.484375 C 1796.015625 359.484375 1803.398438 360.890625 1814.414063 363.742188 C 1819.960938 365.03125 1824.492188 368.3125 1828.046875 373.585938 C 1831.523438 378.820313 1833.28125 384.875 1833.28125 391.75 C 1833.28125 401.867188 1830.507813 409.601563 1824.921875 414.992188 C 1819.375 420.5 1808.984375 423.195313 1793.671875 423.195313 L 1756.914063 423.195313 Z M 2133.046875 224.835938 L 2037.617188 224.835938 L 2024.492188 173.117188 L 1938.90625 173.117188 L 2040.78125 486.4375 L 2132.109375 486.4375 L 2234.0625 173.117188 L 2146.367188 173.117188 Z M 2115.507813 292.609375 L 2085.507813 405.226563 L 2055.742188 292.609375 Z M 2115.507813 292.609375 " transform="matrix(0.1,0,0,-0.1,0,250.8)"/>
</g>
<g clip-path="url(#clip3)" clip-rule="nonzero">
<path style=" stroke:none;fill-rule:evenodd;fill:rgb(8.227539%,8.616638%,8.616638%);fill-opacity:1;" d="M 5.976563 246.171875 L 5.976563 243.671875 L 10.941406 243.671875 L 10.941406 248.796875 C 9.992188 249.542969 9.152344 250.058594 8.421875 250.324219 C 7.691406 250.597656 6.824219 250.730469 5.820313 250.730469 C 4.585938 250.730469 3.578125 250.488281 2.800781 250 C 2.019531 249.515625 1.417969 248.792969 0.992188 247.828125 C 0.5625 246.867188 0.347656 245.761719 0.347656 244.515625 C 0.347656 243.203125 0.582031 242.0625 1.050781 241.089844 C 1.519531 240.121094 2.207031 239.386719 3.109375 238.882813 C 3.8125 238.492188 4.761719 238.300781 5.953125 238.300781 C 7.101563 238.300781 7.964844 238.421875 8.535156 238.660156 C 9.105469 238.902344 9.578125 239.273438 9.957031 239.78125 C 10.332031 240.285156 10.613281 240.925781 10.800781 241.703125 L 7.703125 242.339844 C 7.574219 241.890625 7.355469 241.542969 7.050781 241.300781 C 6.746094 241.058594 6.355469 240.941406 5.886719 240.941406 C 5.179688 240.941406 4.617188 241.222656 4.199219 241.789063 C 3.78125 242.355469 3.570313 243.25 3.570313 244.476563 C 3.570313 245.777344 3.78125 246.707031 4.207031 247.261719 C 4.628906 247.820313 5.21875 248.101563 5.976563 248.101563 C 6.335938 248.101563 6.679688 248.039063 7.003906 247.917969 C 7.332031 247.796875 7.707031 247.59375 8.125 247.304688 L 8.125 246.171875 Z M 12.847656 238.503906 L 21.460938 238.503906 L 21.460938 241.070313 L 16.066406 241.070313 L 16.066406 242.984375 L 21.070313 242.984375 L 21.070313 245.4375 L 16.066406 245.4375 L 16.066406 247.804688 L 21.617188 247.804688 L 21.617188 250.527344 L 12.847656 250.527344 Z M 23.390625 250.527344 L 23.390625 238.503906 L 28.75 238.503906 C 29.742188 238.503906 30.503906 238.601563 31.023438 238.800781 C 31.550781 238.996094 31.976563 239.363281 32.296875 239.894531 C 32.621094 240.429688 32.777344 241.078125 32.777344 241.839844 C 32.777344 242.507813 32.65625 243.085938 32.410156 243.566406 C 32.164063 244.050781 31.824219 244.445313 31.394531 244.746094 C 31.121094 244.9375 30.746094 245.097656 30.269531 245.21875 C 30.648438 245.367188 30.929688 245.515625 31.105469 245.664063 C 31.222656 245.761719 31.394531 245.972656 31.621094 246.292969 C 31.84375 246.617188 31.996094 246.867188 32.070313 247.042969 L 33.625 250.527344 L 29.992188 250.527344 L 28.273438 246.851563 C 28.054688 246.378906 27.863281 246.066406 27.691406 245.925781 C 27.460938 245.742188 27.195313 245.648438 26.902344 245.648438 L 26.621094 245.648438 L 26.621094 250.527344 Z M 26.621094 243.375 L 27.976563 243.375 C 28.121094 243.375 28.40625 243.320313 28.828125 243.214844 C 29.039063 243.160156 29.214844 243.035156 29.347656 242.835938 C 29.484375 242.632813 29.550781 242.402344 29.550781 242.136719 C 29.550781 241.75 29.445313 241.453125 29.230469 241.246094 C 29.015625 241.035156 28.617188 240.929688 28.03125 240.929688 L 26.621094 240.929688 Z M 41.054688 248.542969 L 37.390625 248.542969 L 36.886719 250.527344 L 33.605469 250.527344 L 37.515625 238.503906 L 41.019531 238.503906 L 44.929688 250.527344 L 41.566406 250.527344 Z M 40.378906 245.941406 L 39.230469 241.621094 L 38.089844 245.941406 Z M 45.972656 238.503906 L 49.1875 238.503906 L 49.1875 243.046875 L 52.558594 238.503906 L 56.832031 238.503906 L 53.042969 243.039063 L 57 250.527344 L 53.042969 250.527344 L 50.847656 245.582031 L 49.1875 247.589844 L 49.1875 250.527344 L 45.972656 250.527344 Z M 64.46875 248.542969 L 60.804688 248.542969 L 60.300781 250.527344 L 57.015625 250.527344 L 60.925781 238.503906 L 64.429688 238.503906 L 68.34375 250.527344 L 64.976563 250.527344 Z M 63.792969 245.941406 L 62.640625 241.621094 L 61.5 245.941406 Z M 69.390625 238.503906 L 72.394531 238.503906 L 76.3125 245.15625 L 76.3125 238.503906 L 79.34375 238.503906 L 79.34375 250.527344 L 76.3125 250.527344 L 72.414063 243.925781 L 72.414063 250.527344 L 69.390625 250.527344 Z M 86.453125 238.503906 L 89.675781 238.503906 L 89.675781 250.527344 L 86.453125 250.527344 Z M 92.003906 238.503906 L 95.003906 238.503906 L 98.921875 245.15625 L 98.921875 238.503906 L 101.953125 238.503906 L 101.953125 250.527344 L 98.921875 250.527344 L 95.023438 243.925781 L 95.023438 250.527344 L 92.003906 250.527344 Z M 104.128906 238.503906 L 108.90625 238.503906 C 109.847656 238.503906 110.609375 238.652344 111.1875 238.945313 C 111.765625 239.242188 112.246094 239.667969 112.625 240.21875 C 113.003906 240.773438 113.277344 241.414063 113.449219 242.148438 C 113.617188 242.878906 113.703125 243.65625 113.703125 244.476563 C 113.703125 245.757813 113.578125 246.753906 113.324219 247.464844 C 113.070313 248.171875 112.71875 248.765625 112.269531 249.242188 C 111.820313 249.722656 111.339844 250.039063 110.824219 250.199219 C 110.117188 250.417969 109.480469 250.527344 108.90625 250.527344 L 104.128906 250.527344 Z M 107.34375 241.226563 L 107.34375 247.796875 L 108.132813 247.796875 C 108.804688 247.796875 109.28125 247.710938 109.566406 247.539063 C 109.851563 247.367188 110.070313 247.066406 110.234375 246.636719 C 110.394531 246.207031 110.472656 245.511719 110.472656 244.546875 C 110.472656 243.273438 110.296875 242.402344 109.9375 241.933594 C 109.574219 241.464844 108.980469 241.226563 108.144531 241.226563 Z M 114.988281 244.523438 C 114.988281 242.558594 115.460938 241.03125 116.40625 239.941406 C 117.355469 238.847656 118.671875 238.300781 120.359375 238.300781 C 122.09375 238.300781 123.425781 238.835938 124.363281 239.910156 C 125.300781 240.984375 125.769531 242.492188 125.769531 244.425781 C 125.769531 245.828125 125.5625 246.984375 125.15625 247.882813 C 124.746094 248.78125 124.152344 249.480469 123.382813 249.980469 C 122.605469 250.480469 121.644531 250.730469 120.488281 250.730469 C 119.316406 250.730469 118.34375 250.515625 117.574219 250.085938 C 116.808594 249.652344 116.183594 248.96875 115.703125 248.03125 C 115.226563 247.097656 114.988281 245.925781 114.988281 244.523438 Z M 118.203125 244.539063 C 118.203125 245.753906 118.398438 246.625 118.789063 247.15625 C 119.179688 247.683594 119.710938 247.949219 120.382813 247.949219 C 121.074219 247.949219 121.609375 247.691406 121.988281 247.171875 C 122.363281 246.652344 122.554688 245.71875 122.554688 244.378906 C 122.554688 243.242188 122.355469 242.417969 121.960938 241.894531 C 121.566406 241.375 121.03125 241.113281 120.355469 241.113281 C 119.707031 241.113281 119.1875 241.375 118.792969 241.90625 C 118.402344 242.4375 118.203125 243.316406 118.203125 244.539063 Z M 127.519531 238.503906 L 130.523438 238.503906 L 134.441406 245.15625 L 134.441406 238.503906 L 137.472656 238.503906 L 137.472656 250.527344 L 134.441406 250.527344 L 130.542969 243.925781 L 130.542969 250.527344 L 127.519531 250.527344 Z M 139.601563 238.503906 L 148.214844 238.503906 L 148.214844 241.070313 L 142.820313 241.070313 L 142.820313 242.984375 L 147.824219 242.984375 L 147.824219 245.4375 L 142.820313 245.4375 L 142.820313 247.804688 L 148.371094 247.804688 L 148.371094 250.527344 L 139.601563 250.527344 Z M 149.542969 246.550781 L 152.601563 246.328125 C 152.664063 246.902344 152.800781 247.339844 153.003906 247.640625 C 153.335938 248.128906 153.808594 248.367188 154.425781 248.367188 C 154.882813 248.367188 155.238281 248.246094 155.484375 247.996094 C 155.734375 247.746094 155.855469 247.460938 155.855469 247.132813 C 155.855469 246.820313 155.738281 246.539063 155.503906 246.292969 C 155.265625 246.046875 154.71875 245.816406 153.855469 245.597656 C 152.445313 245.230469 151.441406 244.746094 150.839844 244.140625 C 150.234375 243.53125 149.929688 242.757813 149.929688 241.820313 C 149.929688 241.199219 150.085938 240.613281 150.394531 240.066406 C 150.707031 239.515625 151.171875 239.085938 151.792969 238.769531 C 152.417969 238.457031 153.269531 238.300781 154.351563 238.300781 C 155.679688 238.300781 156.695313 238.585938 157.394531 239.15625 C 158.09375 239.726563 158.507813 240.636719 158.640625 241.882813 L 155.609375 242.085938 C 155.527344 241.546875 155.359375 241.152344 155.101563 240.90625 C 154.84375 240.664063 154.488281 240.539063 154.035156 240.539063 C 153.660156 240.539063 153.378906 240.628906 153.191406 240.8125 C 153 240.996094 152.90625 241.21875 152.90625 241.484375 C 152.90625 241.671875 152.984375 241.84375 153.136719 241.996094 C 153.289063 242.15625 153.648438 242.300781 154.21875 242.441406 C 155.625 242.789063 156.628906 243.144531 157.238281 243.503906 C 157.84375 243.863281 158.289063 244.304688 158.566406 244.835938 C 158.839844 245.363281 158.980469 245.957031 158.980469 246.617188 C 158.980469 247.386719 158.792969 248.097656 158.425781 248.746094 C 158.058594 249.398438 157.542969 249.890625 156.878906 250.226563 C 156.21875 250.5625 155.382813 250.730469 154.375 250.730469 C 152.605469 250.730469 151.378906 250.339844 150.699219 249.550781 C 150.015625 248.761719 149.632813 247.765625 149.542969 246.550781 Z M 160.722656 238.503906 L 163.945313 238.503906 L 163.945313 250.527344 L 160.722656 250.527344 Z M 172.65625 248.542969 L 168.992188 248.542969 L 168.488281 250.527344 L 165.203125 250.527344 L 169.113281 238.503906 L 172.617188 238.503906 L 176.53125 250.527344 L 173.167969 250.527344 Z M 171.980469 245.941406 L 170.832031 241.621094 L 169.6875 245.941406 Z M 182.449219 250.527344 L 182.449219 238.503906 L 187.808594 238.503906 C 188.800781 238.503906 189.5625 238.601563 190.085938 238.800781 C 190.609375 238.996094 191.035156 239.363281 191.355469 239.894531 C 191.679688 240.429688 191.839844 241.078125 191.839844 241.839844 C 191.839844 242.507813 191.714844 243.085938 191.472656 243.566406 C 191.222656 244.050781 190.882813 244.445313 190.453125 244.746094 C 190.179688 244.9375 189.804688 245.097656 189.328125 245.21875 C 189.707031 245.367188 189.988281 245.515625 190.164063 245.664063 C 190.28125 245.761719 190.453125 245.972656 190.679688 246.292969 C 190.902344 246.617188 191.054688 246.867188 191.128906 247.042969 L 192.683594 250.527344 L 189.050781 250.527344 L 187.332031 246.851563 C 187.113281 246.378906 186.921875 246.066406 186.75 245.925781 C 186.519531 245.742188 186.253906 245.648438 185.960938 245.648438 L 185.679688 245.648438 L 185.679688 250.527344 Z M 185.679688 243.375 L 187.035156 243.375 C 187.179688 243.375 187.464844 243.320313 187.886719 243.214844 C 188.097656 243.160156 188.273438 243.035156 188.410156 242.835938 C 188.542969 242.632813 188.609375 242.402344 188.609375 242.136719 C 188.609375 241.75 188.503906 241.453125 188.289063 241.246094 C 188.074219 241.035156 187.675781 240.929688 187.089844 240.929688 L 185.679688 240.929688 Z M 200.113281 248.542969 L 196.449219 248.542969 L 195.949219 250.527344 L 192.664063 250.527344 L 196.574219 238.503906 L 200.078125 238.503906 L 203.988281 250.527344 L 200.625 250.527344 Z M 199.441406 245.941406 L 198.289063 241.621094 L 197.148438 245.941406 Z M 202.734375 238.503906 L 206.304688 238.503906 L 208.402344 242.5625 L 210.503906 238.503906 L 214.054688 238.503906 L 210.007813 245.492188 L 210.007813 250.527344 L 206.785156 250.527344 L 206.785156 245.492188 Z M 220.121094 248.542969 L 216.457031 248.542969 L 215.953125 250.527344 L 212.667969 250.527344 L 216.578125 238.503906 L 220.085938 238.503906 L 223.996094 250.527344 L 220.632813 250.527344 Z M 219.445313 245.941406 L 218.296875 241.621094 L 217.152344 245.941406 Z M 219.445313 245.941406 "/>
</g>
</g>
</svg>
